<svg width="18" height="18" viewBox="0 0 18 18" fill="none" xmlns="http://www.w3.org/2000/svg">
<path d="M8.99986 0.872314C7.02109 0.872397 5.10691 1.57658 3.59983 2.85885C2.09275 4.14113 1.09111 5.91783 0.774138 7.87105C0.457164 9.82427 0.845541 11.8265 1.86978 13.5196C2.89401 15.2127 4.48727 16.4861 6.36446 17.1119C6.78113 17.1848 6.93738 16.9348 6.93738 16.7161C6.93738 16.5181 6.92695 15.8619 6.92695 15.164C4.83319 15.5494 4.29153 14.6536 4.12486 14.1848C3.93992 13.7289 3.64676 13.3249 3.27069 13.0077C2.97903 12.8515 2.56236 12.4661 3.26027 12.4557C3.52676 12.4846 3.78235 12.5773 4.00539 12.726C4.22842 12.8747 4.41233 13.0749 4.54153 13.3098C4.6555 13.5146 4.80876 13.6948 4.99252 13.8402C5.17628 13.9856 5.38692 14.0934 5.61239 14.1572C5.83785 14.2211 6.0737 14.2398 6.30643 14.2124C6.53915 14.185 6.76417 14.1119 6.96859 13.9973C7.00467 13.5737 7.19348 13.1776 7.49986 12.8828C5.64569 12.6744 3.70819 11.9556 3.70819 8.76817C3.69648 7.93996 4.0021 7.13865 4.56236 6.52859C4.30759 5.80877 4.3374 5.01883 4.64569 4.32026C4.64569 4.32026 5.34358 4.1015 6.93736 5.17442C8.30093 4.7994 9.74045 4.7994 11.104 5.17442C12.6978 4.09109 13.3957 4.32026 13.3957 4.32026C13.704 5.01882 13.7338 5.80878 13.479 6.52859C14.041 7.13761 14.3469 7.93962 14.3332 8.76817C14.3332 11.9661 12.3853 12.6744 10.5311 12.8828C10.73 13.0843 10.8832 13.3263 10.9802 13.5923C11.0773 13.8584 11.1159 14.1421 11.0936 14.4244C11.0936 15.539 11.0832 16.4348 11.0832 16.7161C11.0832 16.9348 11.2394 17.1953 11.6561 17.1119C13.53 16.481 15.1187 15.2046 16.1385 13.5107C17.1584 11.8168 17.5431 9.81551 17.2239 7.86418C16.9048 5.91285 15.9025 4.13846 14.3961 2.85774C12.8897 1.57702 10.9771 0.873344 8.99986 0.872314Z" fill="#12F7D6"/>
</svg>
