<svg width="32" height="32" viewBox="0 0 32 32" fill="none" xmlns="http://www.w3.org/2000/svg">
<path fill-rule="evenodd" clip-rule="evenodd" d="M17.3335 24.0001H26.6668C28.876 24.0001 30.6668 22.2092 30.6668 20.0001V6.66675C30.6668 4.45761 28.876 2.66675 26.6668 2.66675H5.3335C3.12436 2.66675 1.3335 4.45761 1.3335 6.66675V20.0001C1.3335 22.2092 3.12436 24.0001 5.3335 24.0001H14.6668V26.6667H10.6668C9.93045 26.6667 9.3335 27.2637 9.3335 28.0001C9.3335 28.7365 9.93045 29.3334 10.6668 29.3334H21.3335C22.0699 29.3334 22.6668 28.7365 22.6668 28.0001C22.6668 27.2637 22.0699 26.6667 21.3335 26.6667H17.3335V24.0001ZM5.3335 5.33341C4.59712 5.33341 4.00016 5.93037 4.00016 6.66675V20.0001C4.00016 20.7365 4.59712 21.3334 5.3335 21.3334H26.6668C27.4032 21.3334 28.0002 20.7365 28.0002 20.0001V6.66675C28.0002 5.93037 27.4032 5.33341 26.6668 5.33341H5.3335Z" fill="#292F36"/>
</svg>
