<svg width="22" height="30" viewBox="0 0 22 30" fill="none" xmlns="http://www.w3.org/2000/svg">
<path d="M11.0002 21.6666C10.2638 21.6666 9.66683 22.2635 9.66683 22.9999C9.66683 23.7363 10.2638 24.3333 11.0002 24.3333H11.0135C11.7499 24.3333 12.3468 23.7363 12.3468 22.9999C12.3468 22.2635 11.7499 21.6666 11.0135 21.6666H11.0002Z" fill="#292F36"/>
<path fill-rule="evenodd" clip-rule="evenodd" d="M4.3335 0.333252C2.12436 0.333252 0.333496 2.12411 0.333496 4.33325V25.6666C0.333496 27.8757 2.12436 29.6666 4.3335 29.6666H17.6668C19.876 29.6666 21.6668 27.8757 21.6668 25.6666V4.33325C21.6668 2.12411 19.876 0.333252 17.6668 0.333252H4.3335ZM3.00016 4.33325C3.00016 3.59687 3.59712 2.99992 4.3335 2.99992H17.6668C18.4032 2.99992 19.0002 3.59687 19.0002 4.33325V25.6666C19.0002 26.403 18.4032 26.9999 17.6668 26.9999H4.3335C3.59712 26.9999 3.00016 26.403 3.00016 25.6666V4.33325Z" fill="#292F36"/>
</svg>
